<svg width="20" height="19" viewBox="0 0 20 19" fill="none" xmlns="http://www.w3.org/2000/svg">
<path d="M10.8184 0.790435C10.8184 0.581133 10.9063 0.380403 11.0629 0.232404C11.2194 0.0844053 11.4317 0.00126029 11.6531 0.00126029C13.8661 0.00355805 15.9877 0.835746 17.5526 2.31524C19.1174 3.79473 19.9976 5.80069 20 7.89301C20 8.10231 19.9121 8.30304 19.7555 8.45104C19.599 8.59904 19.3867 8.68219 19.1653 8.68219C18.9439 8.68219 18.7316 8.59904 18.5751 8.45104C18.4186 8.30304 18.3306 8.10231 18.3306 7.89301C18.3286 6.21917 17.6245 4.61442 16.3726 3.43084C15.1208 2.24725 13.4235 1.58149 11.6531 1.57961C11.4317 1.57961 11.2194 1.49647 11.0629 1.34847C10.9063 1.20047 10.8184 0.999738 10.8184 0.790435ZM11.6531 4.73631C12.5386 4.73631 13.3878 5.06889 14.0139 5.66089C14.6401 6.25288 14.9918 7.0558 14.9918 7.89301C14.9918 8.10231 15.0798 8.30304 15.2363 8.45104C15.3929 8.59904 15.6052 8.68219 15.8265 8.68219C16.0479 8.68219 16.2602 8.59904 16.4168 8.45104C16.5733 8.30304 16.6612 8.10231 16.6612 7.89301C16.6599 6.63758 16.1318 5.43393 15.1929 4.54621C14.254 3.65849 12.9809 3.15921 11.6531 3.15796C11.4317 3.15796 11.2194 3.24111 11.0629 3.38911C10.9063 3.5371 10.8184 3.73783 10.8184 3.94714C10.8184 4.15644 10.9063 4.35717 11.0629 4.50517C11.2194 4.65317 11.4317 4.73631 11.6531 4.73631ZM19.2429 13.2113C19.7266 13.6699 19.9983 14.2911 19.9983 14.9388C19.9983 15.5864 19.7266 16.2077 19.2429 16.6663L18.4834 17.4941C11.6472 23.682 -4.98819 7.95772 1.45564 1.47386L2.41554 0.684686C2.90113 0.240126 3.55233 -0.00580356 4.22824 0.000104021C4.90415 0.0060116 5.55043 0.263281 6.02725 0.716253C6.05313 0.740717 7.59981 2.64026 7.59981 2.64026C8.05875 3.09611 8.31423 3.70165 8.31314 4.33099C8.31205 4.96034 8.05448 5.56508 7.59397 6.01951L6.62739 7.16855C7.1623 8.39738 7.94876 9.51417 8.94159 10.4547C9.93441 11.3953 11.114 12.1412 12.4126 12.6494L13.6355 11.73C14.1162 11.2949 14.7557 11.0517 15.4211 11.0508C16.0866 11.0499 16.7268 11.2915 17.2088 11.7252C17.2088 11.7252 19.2171 13.1868 19.2429 13.2113ZM18.0944 14.3587C18.0944 14.3587 16.097 12.9059 16.0711 12.8814C15.8991 12.7202 15.6668 12.6297 15.4246 12.6297C15.1825 12.6297 14.9501 12.7202 14.7782 12.8814C14.7556 12.9035 13.0721 14.1717 13.0721 14.1717C12.9586 14.2571 12.8236 14.313 12.6803 14.3341C12.537 14.3551 12.3904 14.3405 12.2549 14.2916C10.5725 13.6994 9.04444 12.7723 7.77412 11.573C6.5038 10.3737 5.52093 8.93033 4.89207 7.34059C4.83631 7.21073 4.81813 7.06918 4.8394 6.93049C4.86067 6.79179 4.92063 6.66095 5.0131 6.55141C5.0131 6.55141 6.35445 4.95886 6.37699 4.93834C6.54749 4.77576 6.64315 4.55608 6.64315 4.32712C6.64315 4.09817 6.54749 3.87849 6.37699 3.71591C6.35111 3.69223 4.81444 1.80216 4.81444 1.80216C4.63991 1.65419 4.41212 1.57495 4.17778 1.58067C3.94343 1.5864 3.72028 1.67665 3.55406 1.83294L2.59416 2.62211C-2.11517 7.97588 12.3008 20.8497 17.263 16.4161L18.0234 15.5875C18.2016 15.4314 18.3087 15.216 18.3219 14.9867C18.3351 14.7574 18.2536 14.5322 18.0944 14.3587Z" fill="#393939"/>
</svg>
