<svg width="20" height="20" viewBox="0 0 20 20" fill="none" xmlns="http://www.w3.org/2000/svg">
<path d="M8.77686 14.1943C9.94141 14.1943 11.0327 13.8428 11.9409 13.2422L15.1489 16.4575C15.3613 16.6626 15.6323 16.7651 15.9253 16.7651C16.5332 16.7651 16.98 16.2891 16.98 15.6885C16.98 15.4102 16.8848 15.1392 16.6797 14.9341L13.4937 11.7334C14.1528 10.7959 14.541 9.66064 14.541 8.43018C14.541 5.25879 11.9482 2.66602 8.77686 2.66602C5.61279 2.66602 3.0127 5.25879 3.0127 8.43018C3.0127 11.6016 5.60547 14.1943 8.77686 14.1943ZM8.77686 12.6562C6.45508 12.6562 4.55078 10.752 4.55078 8.43018C4.55078 6.1084 6.45508 4.2041 8.77686 4.2041C11.0986 4.2041 13.0029 6.1084 13.0029 8.43018C13.0029 10.752 11.0986 12.6562 8.77686 12.6562Z" fill="#2AA65C"/>
</svg>
