<svg width="13" height="8" viewBox="0 0 13 8" fill="none" xmlns="http://www.w3.org/2000/svg">
<path d="M0.701382 4.46525C0.571076 4.34236 0.5 4.17264 0.5 3.99707C0.5 3.82736 0.571076 3.65764 0.701382 3.5289L4.13672 0.193124C4.26111 0.0702268 4.43287 0 4.59279 0C4.97187 0 5.22063 0.257498 5.22063 0.608632C5.22063 0.795903 5.14956 0.936357 5.0311 1.04755L3.45558 2.57498L1.89965 3.99707L3.45558 5.42502L5.0311 6.9466C5.14956 7.06364 5.22063 7.19824 5.22063 7.38552C5.22063 7.7425 4.97187 8 4.59279 8C4.43287 8 4.26111 7.92977 4.13672 7.80688L0.701382 4.46525Z" fill="white"/>
<path d="M9.54442 5.42502L11.1092 3.99707L9.54442 2.57498L7.96298 1.04755C7.85044 0.936357 7.77937 0.795903 7.77937 0.608632C7.77937 0.257498 8.02813 0 8.40128 0C8.5612 0 8.73889 0.0702268 8.86328 0.193124L12.2986 3.5289C12.4289 3.65764 12.5 3.82736 12.5 3.99707C12.5 4.17264 12.4289 4.34236 12.2986 4.46525L8.86328 7.80688C8.73889 7.92977 8.5612 8 8.40128 8C8.02813 8 7.77345 7.7425 7.77345 7.38552C7.77345 7.19824 7.85044 7.06364 7.96298 6.9466L9.54442 5.42502Z" fill="white"/>
</svg>
