<svg width="34" height="11" viewBox="0 0 34 11" fill="none" xmlns="http://www.w3.org/2000/svg">
<path fill-rule="evenodd" clip-rule="evenodd" d="M11.4932 10.7884L13.7289 0.443295L16.4061 0.447721L14.1748 10.7922L11.4932 10.7884ZM29.0876 3.26799L29.8828 7.15611L27.6597 7.15021L29.0876 3.26799ZM26.8861 9.26851L30.3139 9.27501L30.6317 10.8229L33.1147 10.8268L30.9742 0.47339L28.6901 0.468374C28.1726 0.468374 27.74 0.766099 27.5464 1.2267L23.5122 10.8105L26.324 10.8162L26.8861 9.26851ZM18.99 10.9631C21.8014 10.9687 23.6444 9.5807 23.6577 7.432C23.6681 5.79614 22.3154 5.08294 21.2335 4.51252C20.5074 4.12966 19.9032 3.81112 19.9151 3.3211C19.9227 2.95109 20.2783 2.55599 21.0508 2.45626C21.4373 2.40845 22.4937 2.3698 23.6919 2.92394L24.1643 0.729512C23.522 0.494932 22.6908 0.269794 21.6601 0.266548C19.0151 0.262712 17.1488 1.66636 17.1287 3.68138C17.1104 5.17089 18.4553 6.00446 19.4677 6.50047C20.5102 7.01065 20.8616 7.33729 20.854 7.79081C20.8469 8.48599 20.0204 8.78873 19.2511 8.80083C17.9448 8.81628 17.1713 8.4543 16.5593 8.16786C16.5402 8.15894 16.5213 8.1501 16.5026 8.14135L16.0122 10.4087C16.6404 10.6966 17.7908 10.9475 18.99 10.9631ZM6.96715 7.47302L9.76883 0.433853L12.5823 0.439165L8.22562 10.781L5.39325 10.7754L3.27259 2.51232C3.14542 2.00126 3.0324 1.81655 2.63908 1.60056C1.99819 1.25119 0.933578 0.922193 -0.000610352 0.715054L0.0643048 0.416149L4.61958 0.426181C5.19821 0.426181 5.72078 0.813017 5.85356 1.48223L6.96715 7.47302Z" fill="#1A1F71"/>
</svg>
