<svg width="18" height="18" viewBox="0 0 18 18" fill="none" xmlns="http://www.w3.org/2000/svg">
<path d="M17.9822 18H8.99572C7.23996 17.9992 5.52279 17.4848 4.05571 16.5202C2.58863 15.5557 1.43571 14.1831 0.738976 12.5715C0.0422379 10.9599 -0.167896 9.17968 0.134457 7.45015C0.436809 5.72062 1.23844 4.11729 2.44062 2.83766C3.6428 1.55802 5.19301 0.657969 6.90032 0.248354C8.60763 -0.161261 10.3975 -0.0625467 12.0494 0.532339C13.7013 1.12722 15.1431 2.1923 16.1973 3.59638C17.2514 5.00045 17.8719 6.68221 17.9822 8.4345V8.48175V18ZM8.99572 1.5C7.0066 1.5 5.09894 2.29018 3.69242 3.6967C2.2859 5.10322 1.49572 7.01088 1.49572 9C1.49572 10.9891 2.2859 12.8968 3.69242 14.3033C5.09894 15.7098 7.0066 16.5 8.99572 16.5H16.4822V8.50575C16.3536 6.60699 15.5093 4.82777 14.1197 3.52742C12.7301 2.22707 10.8988 1.50249 8.99572 1.5V1.5Z" fill="black"/>
<path d="M9.73218 5.25H5.23218V6.75H9.73218V5.25Z" fill="black"/>
<path d="M12.7322 8.25H5.23218V9.75H12.7322V8.25Z" fill="black"/>
<path d="M12.7322 11.25H5.23218V12.75H12.7322V11.25Z" fill="black"/>
</svg>
